HIERARCHY
ROOT Hips
{
	OFFSET 0.0000 0.0000 0.0000
	CHANNELS 6 Xposition Yposition Zposition Zrotation Xrotation Yrotation
	JOINT Spine1
	{
		OFFSET -0.0137 5.0038 -0.0537
		CHANNELS 3 Zrotation Xrotation Yrotation
		JOINT Spine2
		{
			OFFSET -0.0000 7.1253 -0.0298
			CHANNELS 3 Zrotation Xrotation Yrotation
			JOINT Chest
			{
				OFFSET -0.0000 7.5501 -0.8160
				CHANNELS 3 Zrotation Xrotation Yrotation
				JOINT Neck1
				{
					OFFSET -0.1817 26.3113 -0.5533
					CHANNELS 3 Zrotation Xrotation Yrotation
					JOINT Neck2
					{
						OFFSET -0.0000 7.7094 2.3026
						CHANNELS 3 Zrotation Xrotation Yrotation
						JOINT Head
						{
							OFFSET -0.0000 6.1289 1.9537
							CHANNELS 3 Zrotation Xrotation Yrotation
							JOINT Jaw
							{
								OFFSET 0.0026 0.4756 3.0949
								CHANNELS 3 Zrotation Xrotation Yrotation
								End Site
								{
									OFFSET 0.0 1.0 0.0
								}
							}
							JOINT LeftEye
							{
								OFFSET 3.2064 5.3802 7.5869
								CHANNELS 3 Zrotation Xrotation Yrotation
								End Site
								{
									OFFSET 0.0 1.0 0.0
								}
							}
							JOINT RightEye
							{
								OFFSET -3.2224 5.3619 7.5582
								CHANNELS 3 Zrotation Xrotation Yrotation
								End Site
								{
									OFFSET 0.0 1.0 0.0
								}
							}
						}
					}
				}
				JOINT LeftShoulder
				{
					OFFSET 1.6217 23.2372 5.1134
					CHANNELS 3 Zrotation Xrotation Yrotation
					JOINT LeftArm
					{
						OFFSET 14.9198 0.0000 -5.5023
						CHANNELS 3 Zrotation Xrotation Yrotation
						JOINT LeftForeArm
						{
							OFFSET 28.7393 0.0000 -0.0026
							CHANNELS 3 Zrotation Xrotation Yrotation
							JOINT LeftHand
							{
								OFFSET 27.0940 -0.0000 0.0026
								CHANNELS 3 Zrotation Xrotation Yrotation
								JOINT LeftHandThumbEnd
								{
									OFFSET 12.2686 -3.2202 4.8331
									CHANNELS 3 Zrotation Xrotation Yrotation
									End Site
									{
										OFFSET 0.0 1.0 0.0
									}
								}
								JOINT LeftHandMiddleEnd
								{
									OFFSET 19.0120 -0.3129 -0.0340
									CHANNELS 3 Zrotation Xrotation Yrotation
									End Site
									{
										OFFSET 0.0 1.0 0.0
									}
								}
							}
						}
					}
				}
				JOINT RightShoulder
				{
					OFFSET -1.3801 23.1803 5.2142
					CHANNELS 3 Zrotation Xrotation Yrotation
					JOINT RightArm
					{
						OFFSET -15.0372 0.0000 -5.5456
						CHANNELS 3 Zrotation Xrotation Yrotation
						JOINT RightForeArm
						{
							OFFSET -28.7366 0.0000 -0.0026
							CHANNELS 3 Zrotation Xrotation Yrotation
							JOINT RightHand
							{
								OFFSET -27.1336 -0.0000 0.0026
								CHANNELS 3 Zrotation Xrotation Yrotation
								JOINT RightHandThumbEnd
								{
									OFFSET -12.2642 -3.2115 4.8040
									CHANNELS 3 Zrotation Xrotation Yrotation
									End Site
									{
										OFFSET 0.0 1.0 0.0
									}
								}
								JOINT RightHandMiddleEnd
								{
									OFFSET -19.0006 -0.3066 -0.0316
									CHANNELS 3 Zrotation Xrotation Yrotation
									End Site
									{
										OFFSET 0.0 1.0 0.0
									}
								}
							}
						}
					}
				}
			}
		}
	}
	JOINT LeftLeg
	{
		OFFSET 10.0432 -8.4345 2.5957
		CHANNELS 3 Zrotation Xrotation Yrotation
		JOINT LeftShin
		{
			OFFSET -0.0000 -43.2218 -0.8029
			CHANNELS 3 Zrotation Xrotation Yrotation
			JOINT LeftFoot
			{
				OFFSET 0.0000 -42.1551 -3.4815
				CHANNELS 3 Zrotation Xrotation Yrotation
				JOINT LeftToeBase
				{
					OFFSET 0.0000 -5.0595 13.2315
					CHANNELS 3 Zrotation Xrotation Yrotation
					End Site
					{
						OFFSET 0.0 1.0 0.0
					}
				}
			}
		}
	}
	JOINT RightLeg
	{
		OFFSET -10.0473 -8.2953 2.6203
		CHANNELS 3 Zrotation Xrotation Yrotation
		JOINT RightShin
		{
			OFFSET 0.0000 -43.3622 -0.8056
			CHANNELS 3 Zrotation Xrotation Yrotation
			JOINT RightFoot
			{
				OFFSET 0.0000 -42.1174 -3.4784
				CHANNELS 3 Zrotation Xrotation Yrotation
				JOINT RightToeBase
				{
					OFFSET -0.0000 -5.0796 13.2842
					CHANNELS 3 Zrotation Xrotation Yrotation
					End Site
					{
						OFFSET 0.0 1.0 0.0
					}
				}
			}
		}
	}
}
MOTION
Frames: 13
Frame Time: 0.033333
-4.2873 92.6098 -3.7518 -0.0948 10.7884 -10.4286 -0.9062 13.2068 -0.9281 -1.3571 0.6782 -1.0345 -7.6500 28.0776 -5.9859 -5.8085 23.8987 3.2454 -1.3056 -3.5745 -2.9815 -2.3788 -8.7289 -1.5910 -0.0550 -0.0900 -0.0561 0.6154 -10.3701 -3.8135 -0.7274 -10.4687 3.7178 4.0227 18.0765 -15.9629 -61.6706 -43.2974 -13.0206 -0.7725 -1.5895 -106.4104 18.1588 1.9632 5.4575 -14.9216 11.4265 15.9769 -60.5602 2.1309 2.5086 -21.6958 16.6657 6.4358 42.2744 -20.3691 36.9840 -1.0382 0.4774 60.1775 -15.1427 0.9158 3.2620 16.2840 6.9803 -16.3746 50.1613 -3.9914 -5.3992 17.8259 -29.8870 7.1667 -0.3391 33.5286 -0.4933 -18.4430 -10.2195 10.2587 1.6164 -0.1928 -2.0297 2.1058 -46.7357 -19.6646 0.1388 32.7493 -0.0917 3.5345 2.4904 3.1470 -1.4342 1.1831 1.0198
-3.2774 92.7971 -3.5373 -0.0492 10.1091 -12.2610 -0.9669 12.9119 -0.8497 -1.3418 0.5143 -0.9445 -8.1339 27.5489 -6.0093 -7.2227 22.2793 3.6925 -1.4673 -3.5648 -3.2814 -2.6555 -9.8887 -1.5857 -0.0851 -0.0801 -0.0298 0.5876 -10.3496 -3.7826 -0.7646 -10.4413 3.7495 3.3318 17.6054 -16.5141 -63.7834 -44.3190 -9.2481 -0.9362 -1.3603 -106.9553 18.0720 1.5921 4.7343 -14.9585 11.5064 15.9991 -60.6305 2.1412 2.5106 -22.4797 16.2983 6.5639 40.0098 -22.2058 38.1362 -1.0213 0.1694 57.5313 -13.9567 0.3226 3.0322 16.1979 7.0555 -16.3836 50.0565 -3.9491 -5.3789 16.8273 -28.9214 9.0359 -0.2827 34.0102 -0.4171 -18.0730 -10.9118 10.7602 1.6181 -0.1847 -2.0064 1.3816 -45.7963 -18.7687 0.1746 31.3566 -0.0540 4.0049 3.3553 4.1273 -1.4332 1.1180 1.0096
-2.2151 92.9182 -3.1645 0.1927 9.4899 -14.1789 -0.9003 12.6064 -0.8183 -1.3131 0.3738 -0.8030 -8.3576 26.9195 -5.9649 -8.2622 20.0837 4.1790 -1.5009 -3.5610 -3.2368 -3.2057 -11.5822 -1.2029 -0.0992 -0.0684 -0.0092 0.5557 -10.3294 -3.7619 -0.7623 -10.4111 3.7751 2.5043 17.2045 -17.0054 -67.0790 -44.6441 -4.7700 -1.0573 -1.3013 -108.0250 18.2404 0.6742 3.1599 -15.0365 11.5415 16.0346 -60.5860 2.1447 2.5429 -22.9717 15.9539 6.7943 37.8851 -24.1478 39.1505 -1.0793 0.0172 55.7279 -12.5520 0.0213 2.7422 16.0785 7.1442 -16.4268 49.9281 -3.9182 -5.3672 15.5584 -27.9505 11.1789 -0.2153 34.5885 -0.3475 -17.7524 -11.7888 11.2621 1.6210 -0.1719 -1.9841 0.3262 -45.1391 -17.6126 0.2300 30.2798 0.0248 4.4511 4.1461 5.1194 -1.4338 1.0979 0.9908
-1.0778 92.9718 -2.6710 0.6067 8.9695 -16.0666 -0.7237 12.3187 -0.7615 -1.2180 0.1957 -0.7047 -8.2511 26.2353 -5.8453 -8.7457 17.3414 4.5620 -1.4445 -3.5750 -2.7514 -4.0399 -13.7754 -0.2920 -0.1034 -0.0530 0.0175 0.5177 -10.3101 -3.7346 -0.7364 -10.3729 3.8050 1.7385 16.9726 -17.4086 -71.1634 -44.0741 -0.0851 -0.9780 -1.4610 -109.1994 18.8548 -0.7098 0.9335 -15.0809 11.4891 16.0009 -60.3196 2.1544 2.5787 -23.0392 15.6917 7.1565 35.8549 -26.1785 39.8343 -1.2107 0.0531 54.9496 -10.8733 0.0507 2.2498 15.9329 7.2622 -16.5040 49.8808 -3.8279 -5.3204 14.0519 -27.0161 13.4456 -0.1741 35.3018 -0.3356 -17.4743 -12.8696 11.8300 1.6250 -0.1575 -1.9833 -0.9982 -44.8330 -16.3437 0.2722 29.6338 0.1066 4.9127 4.8128 6.1544 -1.4357 1.1277 0.9717
0.0716 92.9930 -2.1024 1.1412 8.5699 -17.5970 -0.4705 12.0772 -0.7244 -1.0636 0.0326 -0.6283 -7.7338 25.5777 -5.6692 -8.5282 14.3677 4.6221 -1.3117 -3.6051 -1.9152 -5.0599 -16.0999 1.1592 -0.0933 -0.0461 0.0424 0.4997 -10.2593 -3.7012 -0.6995 -10.3039 3.8203 1.2998 16.9976 -17.5917 -74.3938 -42.5041 3.2442 -0.5234 -1.8186 -109.8694 19.4395 -1.3924 -0.7094 -15.0955 11.4181 15.9023 -60.0736 2.1772 2.5758 -22.6204 15.5836 7.7020 34.1461 -28.3943 39.7922 -1.3262 0.1566 55.1612 -8.9457 0.6328 1.7902 15.8424 7.3609 -16.6076 49.9068 -3.7405 -5.2535 12.4859 -26.1685 15.3873 -0.1488 36.0358 -0.3273 -17.2292 -13.9834 12.4557 1.6302 -0.1484 -2.0044 -2.4370 -44.7878 -15.2995 0.3049 29.3056 0.1919 5.3296 5.3859 7.1290 -1.4404 1.1540 0.9390
1.1388 92.9828 -1.5133 1.7019 8.3303 -18.6497 -0.1322 11.8578 -0.7215 -0.8726 -0.1181 -0.5763 -6.8160 25.0056 -5.4081 -7.6205 11.4317 4.3224 -1.1395 -3.6254 -1.0100 -6.0246 -18.0364 2.7989 -0.0754 -0.0448 0.0639 0.5172 -10.1852 -3.6649 -0.6792 -10.2067 3.8203 1.3185 17.3079 -17.5318 -75.8790 -40.0887 4.5205 0.1125 -2.1995 -109.7771 19.4844 -0.6686 -1.0046 -15.1656 11.4058 15.8388 -60.0947 2.2180 2.5345 -21.7043 15.6347 8.4617 32.7730 -30.7850 39.0619 -1.3056 0.2517 56.1207 -7.1029 1.8551 1.3720 15.8192 7.4430 -16.7501 50.0153 -3.6170 -5.2413 11.0117 -25.4646 16.7747 -0.1406 36.6653 -0.3199 -16.9636 -14.9768 13.0392 1.6350 -0.1362 -2.0411 -3.8440 -44.8812 -14.5706 0.3135 29.0982 0.2575 5.7479 5.9108 8.0009 -1.4447 1.1378 0.8978
2.0057 92.9663 -0.9728 2.2145 8.2773 -19.2164 0.2560 11.6405 -0.7067 -0.6668 -0.2566 -0.5705 -5.6519 24.6035 -5.0855 -6.2076 8.8937 3.8181 -1.0832 -3.6399 -0.2774 -6.6915 -19.2842 4.0826 -0.0505 -0.0502 0.0749 0.5692 -10.1371 -3.6464 -0.6787 -10.1356 3.8127 1.7463 17.8644 -17.2983 -75.6690 -37.1985 3.8476 0.7828 -2.4270 -109.2379 18.9836 0.9849 -0.2903 -15.1795 11.3728 15.7599 -60.3182 2.2321 2.4625 -20.3805 15.7768 9.3949 31.7198 -33.2456 37.8580 -1.1687 0.3514 57.5248 -5.6162 3.2976 0.9900 15.8297 7.5573 -16.9251 50.1834 -3.4908 -5.2862 9.7299 -25.0433 17.6892 -0.1469 37.2069 -0.3118 -16.6440 -15.7722 13.4786 1.6398 -0.0966 -2.0733 -5.1119 -45.1238 -14.0320 0.3112 29.0224 0.3091 6.1179 6.3765 8.6283 -1.4499 1.1195 0.8438
2.6848 92.9259 -0.5296 2.6419 8.3610 -19.2852 0.6700 11.4721 -0.6999 -0.4538 -0.3530 -0.6146 -4.3657 24.3545 -4.7360 -4.4616 7.0146 3.1987 -1.1188 -3.6683 0.1637 -7.0468 -19.9271 4.7979 -0.0198 -0.0578 0.0626 0.6352 -10.1480 -3.6688 -0.6793 -10.1283 3.7970 2.4955 18.5164 -16.9391 -74.6024 -34.1669 2.0626 1.3024 -2.4436 -108.6779 18.3622 2.6134 0.7644 -15.1350 11.2541 15.6865 -60.5044 2.1889 2.3956 -18.9352 15.9563 10.3462 31.1732 -35.8509 36.3597 -1.0277 0.4883 59.0822 -4.4340 4.6033 0.6236 15.7960 7.6565 -17.0434 50.2568 -3.4169 -5.3042 8.7013 -24.9012 18.1975 -0.1578 37.6252 -0.2996 -16.3273 -16.3130 13.6202 1.6404 -0.0714 -2.0981 -6.2208 -45.4582 -13.6453 0.3189 29.1023 0.3587 6.3973 6.7494 8.9086 -1.4514 1.1472 0.7887
3.1311 92.8701 -0.1846 3.0082 8.5766 -18.8852 1.0706 11.3716 -0.6733 -0.2377 -0.4145 -0.7382 -3.1112 24.2402 -4.3947 -2.5822 5.9022 2.5820 -1.2147 -3.6975 0.2977 -7.1374 -20.1647 4.9404 0.0017 -0.0633 0.0451 0.6790 -10.1800 -3.7009 -0.6764 -10.1479 3.7837 3.4087 19.1473 -16.5291 -73.5007 -31.4313 0.0135 1.5531 -2.2669 -108.4256 17.9222 3.4904 1.7328 -15.0349 11.1328 15.6664 -60.5640 2.1369 2.3486 -17.6241 16.0981 11.1362 31.2713 -38.3623 34.7392 -1.0047 0.6223 60.7022 -3.7436 5.5084 0.2010 15.6981 7.7666 -17.0977 50.2854 -3.3463 -5.2946 7.9032 -25.0677 18.3421 -0.1745 37.9486 -0.3050 -16.1613 -16.6834 13.5627 1.6374 -0.0135 -2.1262 -7.1663 -45.9334 -13.3799 0.3208 29.4280 0.3856 6.5582 6.8529 8.8159 -1.4517 1.2358 0.7442
3.3629 92.8101 0.0352 3.2989 8.9072 -18.0594 1.4523 11.3059 -0.6517 -0.0296 -0.4287 -0.8700 -1.8953 24.2550 -4.1100 -0.6247 5.4530 1.9763 -1.3653 -3.7274 0.2360 -7.0177 -20.1397 4.6360 0.0115 -0.0655 0.0368 0.7022 -10.2291 -3.7292 -0.6768 -10.1978 3.7910 4.3493 19.6590 -16.0943 -72.6262 -29.2143 -1.9998 1.6462 -2.0476 -108.5138 17.6731 3.4112 2.4322 -14.9474 11.0514 15.7389 -60.4664 2.0835 2.3332 -16.3860 16.1899 11.8077 32.0823 -40.8040 32.8093 -0.9605 0.7125 62.4332 -3.6231 5.7815 -0.2992 15.4943 7.8436 -17.0769 50.2598 -3.2952 -5.2765 7.3438 -25.5380 18.2045 -0.1918 38.1920 -0.3189 -16.1282 -16.8894 13.2878 1.6314 0.0680 -2.1514 -7.8709 -46.5154 -13.3746 0.3195 29.9449 0.3962 6.5811 6.7466 8.4555 -1.4530 1.3517 0.7266
3.3953 92.7826 0.1609 3.5655 9.3369 -16.9067 1.8071 11.2726 -0.6786 0.1455 -0.4018 -0.9477 -0.7369 24.4133 -3.8881 1.3540 5.6207 1.3786 -1.5045 -3.7630 0.0304 -6.7336 -19.8742 4.0519 0.0144 -0.0721 0.0309 0.7025 -10.2879 -3.7571 -0.6684 -10.2601 3.8052 5.3783 20.0204 -15.6286 -72.0988 -27.6300 -3.8893 1.6357 -1.8724 -108.8075 17.5766 2.5595 2.8197 -14.8630 10.9665 15.8300 -60.2759 2.0029 2.3351 -15.2393 16.2233 12.2991 33.5674 -43.0919 30.5764 -0.8953 0.7480 64.2407 -3.9526 5.4274 -0.7186 15.2523 7.8384 -16.9642 50.2073 -3.2704 -5.2433 6.9180 -26.2039 17.9727 -0.2116 38.2369 -0.3447 -16.1265 -16.8727 12.7061 1.6265 0.1718 -2.1566 -8.3608 -47.1143 -13.6870 0.3360 30.4585 0.4227 6.5846 6.5123 7.9803 -1.4524 1.4783 0.7265
3.2966 92.8257 0.1914 3.8278 9.8042 -15.5740 2.1150 11.2999 -0.6950 0.2955 -0.3539 -1.0229 0.3265 24.6945 -3.6816 3.2676 6.4152 0.7975 -1.6367 -3.8063 -0.2026 -6.3187 -19.2514 3.3091 0.0178 -0.0816 0.0228 0.6942 -10.3662 -3.7922 -0.6506 -10.3480 3.8228 6.4135 20.2542 -15.1518 -71.7103 -26.5373 -5.7069 1.5613 -1.7418 -109.2072 17.4097 1.2129 3.0379 -14.8287 10.8571 15.8543 -60.0921 1.9372 2.3057 -14.1696 16.2799 12.6904 35.4267 -45.0781 28.1851 -0.6568 0.6497 65.8441 -4.6506 4.6513 -0.9708 15.0816 7.7958 -16.8463 50.2225 -3.2505 -5.2280 6.5623 -26.8972 17.6965 -0.2461 38.0113 -0.3924 -16.0962 -16.5873 12.0070 1.6220 0.2361 -2.1570 -8.6968 -47.6660 -14.2044 0.3479 30.8326 0.4252 6.6796 6.2957 7.5838 -1.4490 1.5744 0.7363
3.1030 92.9027 0.1576 4.0840 10.2980 -14.2499 2.3904 11.3977 -0.6907 0.4176 -0.2887 -1.1054 1.2783 25.0404 -3.4122 5.0044 7.8256 0.1481 -1.7186 -3.8503 -0.3252 -5.8142 -18.2775 2.5229 0.0200 -0.0918 0.0255 0.6809 -10.4669 -3.8182 -0.6297 -10.4540 3.8527 7.4563 20.3870 -14.6770 -71.3845 -25.9002 -7.5311 1.4710 -1.6047 -109.5904 17.0634 -0.4086 3.0934 -14.8489 10.7101 15.7968 -59.9345 1.8661 2.2497 -13.2504 16.3823 12.9532 37.1357 -46.5460 26.2364 -0.5043 0.4404 66.7033 -5.4911 3.6950 -1.0146 14.9425 7.7428 -16.7472 50.2739 -3.2202 -5.1771 6.2472 -27.5989 17.4606 -0.2928 37.6393 -0.4402 -16.0147 -16.1436 11.2745 1.6213 0.2665 -2.1335 -8.9297 -48.1592 -14.7293 0.3490 31.0399 0.4043 6.8244 6.1377 7.2325 -1.4436 1.6332 0.7621
